<svg width="90" height="90" viewBox="0 0 90 90" fill="none" xmlns="http://www.w3.org/2000/svg">
<path d="M73.6831 6.03609C73.8308 9.51525 71.1571 12.4558 67.71 12.6049C64.2646 12.754 61.351 10.0547 61.2033 6.57558C61.0557 3.09641 63.7293 0.154956 67.1756 0.00588709C70.6218 -0.143182 73.5354 2.55692 73.6831 6.03609ZM43.8637 67.588C30.1147 67.588 18.1419 62.594 11.9089 55.2169C16.6257 68.4427 29.1514 77.8988 43.8637 77.8988C58.576 77.8988 71.1016 68.4427 75.8185 55.2169C69.5854 62.594 57.6127 67.588 43.8637 67.588ZM43.8637 19.5705C57.6127 19.5705 69.5854 24.5638 75.8185 31.9417C71.1016 18.7158 58.576 9.25907 43.8637 9.25907C29.1514 9.25907 16.6257 18.7158 11.9089 31.9417C18.1419 24.5638 30.1147 19.5705 43.8637 19.5705ZM27.6665 82.1884C27.8418 86.3215 24.6646 89.8152 20.5704 89.993C16.4762 90.1699 13.0154 86.9626 12.8401 82.8295C12.664 78.6965 15.8412 75.2019 19.9353 75.0249C24.0295 74.848 27.4913 78.0553 27.6665 82.1884ZM14.5754 16.7023C12.072 16.8104 9.95514 14.8494 9.84804 12.3213C9.74007 9.79417 11.6827 7.65729 14.1871 7.54917C16.6905 7.44106 18.8073 9.40213 18.9144 11.9293C19.0224 14.4573 17.0789 16.5942 14.5754 16.7023Z" fill="#F78C6C"/>
</svg>
